# xmcd
#
# Track frame offsets:
#	150
#	2942
#	14989
#	26436
#	42109
#	56882
#	71692
#	85044
#	91226
#	107610
#	119899
#	132305
#	142507
#	153432
#	168653
#	172597
#	186121
#	198019
#	206396
#	218188
#	225457
#	236302
#	247468
#	263850
#	274191
#	281628
#	295249
#	302411
#	313961
#
# Disc length: 4376 seconds
#
# Revision: 0
# Processed by: cddbd v1.4PL0 Copyright (c) Steve Scherf et al.
# Submitted via: EasyCDDAExtractor 4.6.9.1
#
DISCID=a111161d
DTITLE=Clubjoing Allstars - Untouchables
DYEAR=2002
DGENRE=R&B
TTITLE0=Intro
TTITLE1=Breath In
TTITLE2=Trade It All Pt 2
TTITLE3=Gimme Some
TTITLE4=6 Mins
TTITLE5=Blue Jeans
TTITLE6=Put Me Down
TTITLE7=Allstar Break
TTITLE8=Feel It Boy
TTITLE9=My Neck My Back
TTITLE10=Half Moon
TTITLE11=Boogie 2nite
TTITLE12=On The Road
TTITLE13=I'm Not Really Lookin
TTITLE14=Tell You How It Is
TTITLE15=Ching Ching
TTITLE16=Growing Pains
TTITLE17=My Block
TTITLE18=Po Folks
TTITLE19=Work It Out
TTITLE20=Loving You
TTITLE21=Most High
TTITLE22=Someone To Love You
TTITLE23=Move ON
TTITLE24=Xclusive
TTITLE25=Nothin
TTITLE26=What
TTITLE27=Bravo
TTITLE28=Figure It Out
EXTD=
EXTT0=
EXTT1=
EXTT2=
EXTT3=
EXTT4=
EXTT5=
EXTT6=
EXTT7=
EXTT8=
EXTT9=
EXTT10=
EXTT11=
EXTT12=
EXTT13=
EXTT14=
EXTT15=
EXTT16=
EXTT17=
EXTT18=
EXTT19=
EXTT20=
EXTT21=
EXTT22=
EXTT23=
EXTT24=
EXTT25=
EXTT26=
EXTT27=
EXTT28=
PLAYORDER=
